<?xml version="1.0" encoding="utf-8"?>
<!-- Generator: Adobe Illustrator 19.2.1, SVG Export Plug-In . SVG Version: 6.00 Build 0)  -->
<svg version="1.1" id="Ebene_1" xmlns="http://www.w3.org/2000/svg" xmlns:xlink="http://www.w3.org/1999/xlink" x="0px" y="0px"
	 viewBox="0 0 210.3 81.3" style="enable-background:new 0 0 210.3 81.3;" xml:space="preserve">
<style type="text/css">
	.st0{fill:#FFFFFF;}
	.st1{fill:#EB7529;}
</style>
<g>
	<path class="st0" d="M19.8,31.3c-3.9,0-9.2,1.9-9.2,10c0,9.1,6.3,9.8,10.1,9.8c3.4,0,6.9-1.4,6.9-1.4v-4.4c0,0-4.5,1.5-6.9,1.5
		c-2.1,0-4.3-0.5-4.7-3.7h12.6v-1.9C28.6,33,24,31.3,19.8,31.3z M16,39.7c0.1-3.7,1.7-4.7,3.8-4.7c1.7,0,3.5,0.5,3.5,4.7H16z"/>
	<path class="st0" d="M69.3,41.8h5.3v7.4c0,0-2.5,0.6-4.3,0.6c-2.7,0-6.3-1.2-6.3-9.6c0-7.7,3.6-9.8,7.5-9.8c3.6,0,7.6,1.6,7.6,1.6
		v-4.8c0,0-3-1.7-7.6-1.7c-5.4,0-13.6,2.4-13.6,14.8c0,13.6,7.6,14.6,12.5,14.6c4.2,0,10.3-1.6,10.3-1.6V37H68.9L69.3,41.8z"/>
	<polygon class="st0" points="127.2,38.5 122.2,25.8 115.2,25.8 124.2,43 124.2,54.4 130.3,54.4 130.3,43 139.3,25.8 132.2,25.8 	
		"/>
	<path class="st0" d="M192.4,25.8l-8.1,14l-8-14h-5.1l-1,28.6h6.1l0.2-10.9c0.1-4.1-0.5-9.5-0.5-9.5s1.7,4.4,3.5,7.3l4.8,7.7
		l4.8-7.7c2-3.3,3.6-7.4,3.6-7.4s-0.6,5.8-0.5,9.5l0.2,10.9h6.1l-1-28.6H192.4z"/>
	<path class="st1" d="M19.8,35c-2.1,0-3.6,1-3.8,4.7h7.2C23.2,35.5,21.5,35,19.8,35z"/>
	<path class="st1" d="M23.2,21.5h-7.4C5.8,21.5,0,27.9,0,38v6.8c0,10.1,6.4,16.5,16.5,16.5h6.8c10.1,0,16.5-6.4,16.5-16.5v-7.4
		C39.7,27.3,33.3,21.5,23.2,21.5z M28.6,43.2H16c0.4,3.2,2.6,3.7,4.7,3.7c2.4,0,6.9-1.5,6.9-1.5v4.4c0,0-3.5,1.4-6.9,1.4
		c-3.8,0-10.1-0.7-10.1-9.8c0-8.1,5.3-10,9.2-10c4.2,0,8.8,1.7,8.8,9.9V43.2z"/>
	<path class="st1" d="M74.4,14.6h-7.8c-13.2,0-22.1,8.9-22.1,22.1v7.8c0,13.2,8.9,22.1,22.1,22.1h7.8c13.2,0,22.1-8.9,22.1-22.1
		v-8.4C96.6,22.9,87.7,14.6,74.4,14.6z M80.7,53.2c0,0-6.1,1.6-10.3,1.6c-4.9,0-12.5-1-12.5-14.6c0-12.5,8.2-14.8,13.6-14.8
		c4.7,0,7.6,1.7,7.6,1.7v4.8c0,0-4-1.6-7.6-1.6c-3.9,0-7.5,2.2-7.5,9.8c0,8.4,3.6,9.6,6.3,9.6c1.8,0,4.3-0.6,4.3-0.6v-7.4h-5.3
		L68.9,37h11.8V53.2z"/>
	<path class="st1" d="M131.3,14.6h-7.8c-13.2,0-22.1,8.9-22.1,22.1v7.8c0,13.2,8.9,22.1,22.1,22.1h7.8c13.2,0,22.1-8.9,22.1-22.1
		v-8.4C153.4,22.9,144.5,14.6,131.3,14.6z M130.3,43v11.4h-6.1V43l-9-17.2h7l5,12.7l5-12.7h7.1L130.3,43z"/>
	<path class="st1" d="M188.1,14.6h-7.8c-13.2,0-22.1,8.9-22.1,22.1v7.8c0,13.2,8.9,22.1,22.1,22.1h7.8c13.2,0,22.1-8.9,22.1-22.1
		v-8.4C210.3,22.9,201.3,14.6,188.1,14.6z M192.3,54.4l-0.2-10.9c-0.1-3.8,0.5-9.5,0.5-9.5s-1.5,4.1-3.6,7.4l-4.8,7.7l-4.8-7.7
		c-1.8-2.9-3.5-7.3-3.5-7.3s0.6,5.4,0.5,9.5l-0.2,10.9h-6.1l1-28.6h5.1l8,14l8.1-14h5l1,28.6H192.3z"/>
</g>
</svg>
